<svg width="1440" height="1024" viewBox="0 0 1440 1024" fill="none" xmlns="http://www.w3.org/2000/svg">
<rect width="1440" height="1024" fill="#292735"/>
<rect x="746" y="644" width="195" height="195" fill="#1B7BE7"/>
<rect x="938" y="554" width="139" height="139" fill="#F2C777"/>
<rect x="1192" y="236" width="139" height="139" fill="white"/>
<rect x="103" y="804" width="83" height="83" fill="#68BE66"/>
<rect x="214" y="742" width="52" height="52" fill="#34323F"/>
<rect x="93" y="236" width="52" height="52" fill="#34323F"/>
<rect x="1262" y="752" width="52" height="52" fill="#34323F"/>
<rect x="1288" y="403" width="85" height="85" fill="#1B7BE7"/>
<rect x="840" y="236" width="98" height="98" fill="#68BE66"/>
<rect x="889" y="305" width="129" height="129" fill="#F2C777"/>
<rect x="1008" y="194" width="40" height="40" fill="#34323F"/>
<rect x="1077" y="462" width="26" height="26" fill="#485F2F"/>
<rect x="356" y="907" width="26" height="26" fill="#F2C777"/>
<rect x="684" y="881" width="26" height="26" fill="white"/>
<rect x="132" y="525" width="26" height="26" fill="#485F2F"/>
<rect x="609" y="726" width="26" height="26" fill="#485F2F"/>
<rect x="1318" y="631" width="26" height="26" fill="#485F2F"/>
<rect x="1360" y="154" width="26" height="26" fill="#485F2F"/>
<rect x="1103" y="755" width="26" height="26" fill="#D9D9D9"/>
<rect x="795" y="499" width="26" height="26" fill="white"/>
<rect x="1166" y="512" width="26" height="26" fill="#68BE66"/>
</svg>
