<svg width="125" height="24" viewBox="0 0 125 24" fill="none" xmlns="http://www.w3.org/2000/svg">
<path d="M7.93654 9.78486C8.09448 9.80611 8.36101 9.84861 8.73612 9.91235C9.13097 9.9761 9.56531 10.1036 10.0391 10.2948C10.5327 10.4648 11.0361 10.6985 11.5494 10.996C12.0628 11.2935 12.5267 11.7078 12.9413 12.239C13.3559 12.749 13.7014 13.3758 13.9778 14.1195C14.2542 14.8632 14.3924 15.7556 14.3924 16.7968C14.3924 16.8393 14.3726 17.0518 14.3332 17.4343C14.3134 17.7955 14.2246 18.2417 14.0666 18.7729C13.9087 19.3041 13.6718 19.8672 13.3559 20.4622C13.04 21.0571 12.5859 21.6202 11.9937 22.1514C11.4014 22.6614 10.6512 23.0863 9.74299 23.4263C8.85457 23.7663 7.75885 23.9363 6.45584 23.9363C5.25154 23.9363 4.10647 23.6707 3.02062 23.1394C1.95452 22.587 1.03648 21.8327 0.266517 20.8765L3.28715 18.3586C3.28715 18.3798 3.35625 18.4754 3.49445 18.6454C3.65239 18.8154 3.86955 18.996 4.14595 19.1873C4.44209 19.3785 4.80733 19.5591 5.24167 19.7291C5.69575 19.8778 6.2288 19.9522 6.84082 19.9522C7.96615 19.9522 8.8447 19.6441 9.47646 19.0279C10.1082 18.3904 10.4241 17.6467 10.4241 16.7968C10.4241 16.1806 10.3057 15.6813 10.0687 15.2988C9.83183 14.8951 9.50609 14.5764 9.09149 14.3426C8.69664 14.0877 8.23268 13.8964 7.69963 13.7689C7.18632 13.6202 6.63352 13.4821 6.04125 13.3546C5.8833 13.3333 5.61678 13.2802 5.24167 13.1952C4.8863 13.1102 4.48158 12.9721 4.0275 12.7809C3.59316 12.5896 3.12921 12.3453 2.63564 12.0478C2.16182 11.7291 1.72748 11.336 1.33262 10.8685C0.957514 10.3798 0.641638 9.80611 0.384984 9.14741C0.128329 8.46746 0 7.67065 0 6.75697C0 6.71447 0.00986761 6.52324 0.0296103 6.18327C0.0690956 5.82205 0.157942 5.39708 0.29614 4.90836C0.454081 4.3984 0.690992 3.85657 1.00687 3.28287C1.3425 2.70916 1.80645 2.18858 2.39873 1.72111C2.99101 1.2324 3.73136 0.828684 4.61978 0.509958C5.52794 0.191233 6.63353 0.0318699 7.93654 0.0318699C9.14084 0.0318699 10.2859 0.308099 11.3718 0.860556C12.4576 1.41301 13.3855 2.16733 14.1555 3.1235L11.1348 5.64143C10.9177 5.23771 10.6117 4.92961 10.2168 4.71713C9.82197 4.4834 9.42711 4.31341 9.03226 4.20717C8.55843 4.10093 8.055 4.03718 7.52195 4.01593C6.39662 4.01593 5.51807 4.26029 4.88631 4.749C4.25454 5.21647 3.93865 5.88579 3.93865 6.75697C3.93865 7.37317 4.03737 7.86188 4.23479 8.22311C4.43222 8.56308 4.69875 8.82868 5.03437 9.01992C5.38974 9.21116 5.81421 9.35989 6.30778 9.46613C6.80134 9.55113 7.34426 9.65737 7.93654 9.78486Z" fill="#1B7BE7"/>
<path d="M33.7158 0V3.98406H26.3123V23.9363H22.5809V0H33.7158Z" fill="#1B7BE7"/>
<path d="M58.0591 23.9363H53.9428L49.0269 14.1833H40.7942V10.2311H51.4849C51.9389 10.2098 52.3437 10.0823 52.699 9.84861C53.0149 9.65737 53.3012 9.34927 53.5578 8.9243C53.8145 8.49933 53.9428 7.89376 53.9428 7.10757C53.9428 6.34263 53.8145 5.74768 53.5578 5.32271C53.3012 4.89774 53.0149 4.58964 52.699 4.3984C52.3437 4.16467 51.9389 4.03718 51.4849 4.01593H40.7942V0.0318699H51.4849C52.6299 0.0956149 53.6565 0.393091 54.5647 0.9243C54.9398 1.15803 55.3149 1.44488 55.69 1.78486C56.0651 2.12483 56.3909 2.53917 56.6673 3.02789C56.9634 3.5166 57.2003 4.10093 57.378 4.78087C57.5557 5.43957 57.6445 6.21514 57.6445 7.10757C57.6445 8.55246 57.4274 9.74236 56.9931 10.6773C56.5587 11.591 56.0651 12.3134 55.5124 12.8446C54.9793 13.3546 54.466 13.7052 53.9724 13.8964C53.4986 14.0877 53.2123 14.1833 53.1136 14.1833L58.0591 23.9363Z" fill="#449FA1"/>
<path d="M72.1705 0.0318699C73.7301 0.0318699 75.0331 0.403714 76.0795 1.14741C77.1456 1.86985 77.9945 2.80478 78.6263 3.95219C79.2581 5.0996 79.7023 6.38512 79.9589 7.80876C80.2353 9.2324 80.3735 10.6348 80.3735 12.0159C80.3735 12.1647 80.3538 12.5684 80.3143 13.2271C80.2945 13.8645 80.2057 14.6295 80.0478 15.5219C79.9096 16.4143 79.6727 17.3599 79.337 18.3586C79.0212 19.336 78.5572 20.2497 77.9452 21.0996C77.3331 21.9283 76.5533 22.6189 75.6057 23.1713C74.6778 23.7238 73.5327 24 72.1705 24C70.5318 24 69.1597 23.6282 68.0541 22.8845C66.9485 22.1408 66.0502 21.1846 65.3592 20.0159C64.688 18.826 64.2043 17.498 63.9082 16.0319C63.6318 14.5445 63.4936 13.0784 63.4936 11.6335C63.4936 11.3997 63.5034 10.9535 63.5232 10.2948C63.5627 9.63612 63.6614 8.8818 63.8193 8.03187C63.9773 7.16069 64.224 6.25764 64.5597 5.32271C64.915 4.38778 65.4086 3.52722 66.0404 2.74103C66.6919 1.95485 67.5112 1.30677 68.4983 0.796809C69.5052 0.286849 70.7292 0.0318699 72.1705 0.0318699ZM72.1705 20.0159C72.9404 20.0159 73.5821 19.8247 74.0954 19.4422C74.6284 19.0385 75.0627 18.5392 75.3984 17.9442C75.734 17.328 75.9906 16.6799 76.1683 16C76.346 15.2988 76.4645 14.6507 76.5237 14.0558C76.6027 13.4608 76.6422 12.9721 76.6422 12.5896C76.6619 12.2072 76.6718 12.0159 76.6718 12.0159C76.6718 11.8884 76.6619 11.591 76.6422 11.1235C76.6422 10.6348 76.5928 10.0823 76.4941 9.46613C76.4151 8.84993 76.2868 8.20186 76.1091 7.52191C75.9314 6.82071 75.6748 6.18326 75.3391 5.60956C75.0035 5.03585 74.579 4.56839 74.0657 4.20717C73.5524 3.8247 72.9207 3.63346 72.1705 3.63346C71.1438 3.63346 70.3048 3.93094 69.6533 4.52589C69.0018 5.12085 68.4884 5.85392 68.1133 6.7251C67.758 7.57503 67.5112 8.48871 67.373 9.46613C67.2545 10.4223 67.1953 11.2722 67.1953 12.0159C67.1953 12.0797 67.2052 12.324 67.2249 12.749C67.2446 13.174 67.294 13.6839 67.373 14.2789C67.4717 14.8738 67.6198 15.5113 67.8172 16.1912C68.0146 16.8499 68.291 17.4661 68.6464 18.0398C69.0215 18.6135 69.4953 19.0916 70.0679 19.4741C70.6404 19.8353 71.3413 20.0159 72.1705 20.0159Z" fill="#68BE66"/>
<path d="M100.122 11.3785C100.418 11.5697 100.734 11.8247 101.07 12.1434C101.425 12.4622 101.751 12.8552 102.047 13.3227C102.343 13.7902 102.59 14.3426 102.787 14.9801C103.005 15.5963 103.113 16.2975 103.113 17.0837C103.113 17.9548 103.024 18.7198 102.847 19.3785C102.689 20.0159 102.472 20.579 102.195 21.0677C101.919 21.5352 101.603 21.9389 101.247 22.2789C100.892 22.5976 100.527 22.8632 100.152 23.0757C99.2831 23.5857 98.296 23.8725 97.1904 23.9363H86.9439V19.8884H97.1904C97.1904 19.8884 97.299 19.8778 97.5161 19.8566C97.753 19.8141 98.0097 19.7078 98.2861 19.5379C98.5822 19.3466 98.8389 19.0704 99.056 18.7092C99.2929 18.3267 99.4114 17.7849 99.4114 17.0837C99.4114 16.3612 99.2929 15.7981 99.056 15.3944C98.8191 14.9907 98.5625 14.7039 98.2861 14.5339C97.9505 14.3214 97.5852 14.2045 97.1904 14.1833H86.9439V10.1355H95.3543C95.7689 10.1355 96.144 10.0186 96.4796 9.78486C96.756 9.61487 97.0127 9.32802 97.2496 8.9243C97.4865 8.49933 97.605 7.915 97.605 7.17131C97.605 6.40637 97.4865 5.81142 97.2496 5.38645C97.0127 4.96149 96.756 4.65339 96.4796 4.46215C96.144 4.22842 95.7689 4.10093 95.3543 4.07968H86.9439V0.0318699H95.7393C96.7659 0.0956149 97.6839 0.393091 98.4934 0.9243C98.8488 1.15803 99.1844 1.44488 99.5003 1.78486C99.8359 2.12483 100.132 2.5498 100.389 3.05976C100.665 3.54847 100.882 4.1328 101.04 4.81275C101.198 5.47145 101.277 6.24701 101.277 7.13944C101.277 7.84064 101.218 8.45684 101.099 8.98805C100.981 9.49801 100.843 9.9336 100.685 10.2948C100.507 10.6985 100.32 11.0598 100.122 11.3785Z" fill="#68BE66"/>
<path d="M110.163 23.9363V19.9522H125V23.9363H110.163ZM123.342 9.97609V13.9602H110.163V9.97609H123.342ZM110.163 0.0318699H125V4.01593H110.163V0.0318699Z" fill="#91E220"/>
</svg>
